<svg width="28" height="28" viewBox="0 0 28 28" fill="none" xmlns="http://www.w3.org/2000/svg">
<g clip-path="url(#clip0_1345_822)">
<path d="M13.5781 7.1445C8.3867 7.1445 4.168 11.3633 4.168 16.5781C4.168 21.7812 8.3867 26 13.5781 26C18.7812 26 23 21.7812 23 16.5781C23 11.3633 18.7813 7.1445 13.5781 7.1445ZM13.5781 9.0312C17.7969 9.0312 21.1133 12.3477 21.1133 16.5781C21.1133 20.8086 17.7969 24.1133 13.5781 24.1133C9.3594 24.1133 6.0547 20.8086 6.0547 16.5781C6.0547 12.3477 9.3594 9.0312 13.5781 9.0312ZM14.5156 3.3242H12.6289L12.6289 8.0117H14.5156L14.5156 3.3242ZM17.6797 2.3867H9.4766C8.9609 2.3867 8.5391 2.8086 8.5391 3.3242C8.5391 3.8398 8.9609 4.2734 9.4766 4.2734H17.668C18.1836 4.2734 18.6172 3.8398 18.6172 3.3242C18.6172 2.8086 18.1953 2.3867 17.6797 2.3867Z" fill="#717171"/>
</g>
<g clip-path="url(#clip1_1345_822)">
<path d="M13.9614 26.2411C16.6375 26.2411 18.8227 22.2848 18.8227 16.9808C18.8227 11.6479 16.6472 7.69157 13.9614 7.69157C11.2758 7.69157 9.10028 11.6479 9.10028 16.9808C9.10028 22.2848 11.2854 26.2411 13.9614 26.2411ZM13.9614 8.85633C15.8482 8.85633 17.5328 12.6105 17.5328 16.9808C17.5328 21.274 15.8482 25.0667 13.9614 25.0667C12.0747 25.0667 10.3902 21.274 10.3902 16.9808C10.3902 12.6105 12.0747 8.85633 13.9614 8.85633ZM13.3358 7.82634V26.0582H14.5968V7.82634H13.3358ZM13.9614 20.581C10.9966 20.581 8.36869 21.3607 7.02103 22.6024L7.99327 23.4014C9.26392 22.3907 11.3335 21.8419 13.9614 21.8419C16.5894 21.8419 18.659 22.3907 19.9297 23.4014L20.9019 22.6024C19.5542 21.3607 16.9263 20.581 13.9614 20.581ZM22.8463 16.3262H5.07656V17.5872H22.8463V16.3262ZM13.9614 13.3902C16.9263 13.3902 19.5542 12.6105 20.9019 11.3687L19.9297 10.5698C18.659 11.5709 16.5894 12.1292 13.9614 12.1292C11.3335 12.1292 9.26392 11.5709 7.99327 10.5698L7.02103 11.3687C8.36869 12.6105 10.9966 13.3902 13.9614 13.3902ZM13.9614 26.7801C19.3328 26.7801 23.7801 22.3233 23.7801 16.9615C23.7801 11.5901 19.3232 7.14288 13.9518 7.14288C8.59009 7.14288 4.14282 11.5901 4.14282 16.9615C4.14282 22.3233 8.59971 26.7801 13.9614 26.7801ZM13.9614 25.471C9.31205 25.471 5.45197 21.611 5.45197 16.9615C5.45197 12.3121 9.30242 8.45204 13.9518 8.45204C18.6013 8.45204 22.4709 12.3121 22.4709 16.9615C22.4709 21.611 18.6109 25.471 13.9614 25.471Z" fill="#717171"/>
</g>
<defs>
<clipPath id="clip0_1345_822">
<rect width="18.832" height="23.6367" fill="white" transform="matrix(-1 0 0 -1 23 26)"/>
</clipPath>
<clipPath id="clip1_1345_822">
<rect width="19.6372" height="19.6469" fill="white" transform="translate(4.14282 7.14288)"/>
</clipPath>
</defs>
</svg>
