<svg width="32" height="29" viewBox="0 0 32 29" fill="none" xmlns="http://www.w3.org/2000/svg">
<g clip-path="url(#clip0_1339_702)">
<path d="M25.9214 27C29.1324 27 31.1714 25.4766 31.1714 23.0625C31.1714 20.6484 29.6011 20.0508 29.6011 19.0312C29.6011 18.2461 29.941 17.5312 29.941 16.5586C29.941 14.9531 28.816 13.9336 26.8472 13.6992V6.78516C26.8472 6.31641 26.8941 6.17578 27.1753 6C27.4097 5.83594 27.5152 5.70703 27.4918 5.48438L27.316 2.58984C27.3043 2.33203 27.1168 2.14453 26.8824 2.14453H24.9488C24.7261 2.14453 24.5386 2.33203 24.5269 2.58984L24.3511 5.48438C24.3277 5.70703 24.4332 5.83594 24.6675 6C24.9371 6.1875 24.9839 6.32812 24.9839 6.78516V13.6992C23.0269 13.9336 21.9019 14.9531 21.9019 16.5586C21.9019 17.5312 22.2418 18.2461 22.2418 19.0312C22.2418 20.0508 20.6714 20.6484 20.6714 23.0625C20.6714 25.4766 22.7105 27 25.9214 27ZM25.9214 25.6758C23.4605 25.6758 21.9957 24.6914 21.9957 23.0625C21.9957 21.1758 23.5777 20.4375 23.5777 19.0078C23.5777 18.1875 23.2261 17.3203 23.2261 16.5586C23.2261 15.3164 24.3277 14.9297 25.9214 14.9297C27.5152 14.9297 28.6168 15.3164 28.6168 16.5586C28.6168 17.3203 28.2652 18.1875 28.2652 19.0078C28.2652 20.4375 29.8472 21.1758 29.8472 23.0625C29.8472 24.6914 28.3824 25.6758 25.9214 25.6758ZM25.9214 19.957C26.6246 19.957 27.1871 19.3828 27.1871 18.6914C27.1871 17.9883 26.6246 17.4141 25.9214 17.4141C25.2183 17.4141 24.6441 17.9883 24.6441 18.6914C24.6441 19.3828 25.2066 19.957 25.9214 19.957ZM24.4214 23.2734H27.398C27.6793 23.2734 27.9136 23.0508 27.9136 22.7695C27.9136 22.4766 27.6793 22.2422 27.398 22.2422H24.4214C24.1519 22.2422 23.9058 22.4883 23.9058 22.7695C23.9058 23.0508 24.1402 23.2734 24.4214 23.2734Z" fill="#717171"/>
<path d="M16.7341 27.668C20.2146 27.668 22.5935 25.5469 22.5935 22.3711C22.5935 19.7109 21.1404 18.668 21.1404 18.2109C21.1404 17.5547 21.9373 16.8398 21.9373 15.3867C21.9373 14.1797 21.0935 13.3008 19.9568 13.3008C19.2185 13.3008 18.6912 13.6289 18.2576 14.1211L18.2693 7.27734C18.5857 7.10156 18.7849 6.79688 18.8552 6.25781L19.0896 3.85547C19.113 3.45703 18.9607 3.04688 18.6443 2.75391L17.6248 1.88672C17.3904 1.67578 17.074 1.54688 16.7341 1.54688C16.3943 1.54688 16.0779 1.67578 15.8435 1.88672L14.8357 2.75391C14.5427 3.03516 14.3552 3.45703 14.3904 3.86719L14.6248 6.25781C14.6599 6.79688 14.8943 7.08984 15.199 7.26562L15.2224 14.1445C14.824 13.7227 14.1912 13.3008 13.5115 13.3008C12.3748 13.3008 11.531 14.1797 11.531 15.3867C11.531 16.8398 12.3279 17.5547 12.3279 18.2109C12.3279 18.668 10.8748 19.7109 10.8748 22.3711C10.8748 25.5469 13.2537 27.668 16.7341 27.668Z" fill="white"/>
<path d="M16.7341 27.0703C19.9099 27.0703 21.9959 25.1953 21.9959 22.3711C21.9959 20.0391 20.5427 18.9609 20.5427 18.2109C20.5427 17.3086 21.3396 16.5703 21.3396 15.3867C21.3396 14.5195 20.7654 13.8984 19.9568 13.8984C19.2185 13.8984 18.7615 14.3203 18.492 14.7773C18.281 15.1055 18.0818 15.3281 17.9412 15.3281C17.7185 15.3281 17.6599 14.9297 17.6599 14.3789L17.6716 7.21875C17.6716 6.87891 17.6716 6.85547 17.8591 6.79688C18.1287 6.71484 18.2107 6.5625 18.2576 6.19922L18.492 3.80859C18.5037 3.58594 18.4216 3.375 18.2341 3.21094L17.238 2.33203C17.0974 2.21484 16.9334 2.14453 16.7341 2.14453C16.5466 2.14453 16.3709 2.21484 16.242 2.33203L15.2341 3.21094C15.0701 3.36328 14.9646 3.59766 14.988 3.80859L15.2224 6.19922C15.2459 6.55078 15.3513 6.71484 15.6209 6.79688C15.7732 6.83203 15.7966 6.89062 15.7966 7.21875L15.8201 14.3789C15.8201 14.8945 15.7498 15.3281 15.5388 15.3281C15.3865 15.3281 15.1873 15.1055 14.988 14.7773C14.7068 14.3203 14.2498 13.8984 13.5115 13.8984C12.7029 13.8984 12.1287 14.5195 12.1287 15.3867C12.1287 16.5703 12.9255 17.3086 12.9255 18.2109C12.9255 18.9609 11.4724 20.0391 11.4724 22.3711C11.4724 25.1953 13.5701 27.0703 16.7341 27.0703ZM16.7341 25.7227C14.2849 25.7227 12.8084 24.4688 12.8084 22.3711C12.8084 20.2148 14.2498 19.5117 14.2498 18.2227C14.2498 17.0156 13.4412 16.3125 13.4412 15.375C13.4412 15.2695 13.5232 15.1875 13.6052 15.1875C14.1326 15.1875 14.4138 16.6055 15.5857 16.6055C16.113 16.6055 16.5115 16.2891 16.6873 15.6914H16.781C16.9685 16.3008 17.3787 16.6055 17.906 16.6055C19.0545 16.6055 19.3357 15.1875 19.863 15.1875C19.9451 15.1875 20.0271 15.2695 20.0271 15.375C20.0271 16.3125 19.2185 17.0156 19.2185 18.2227C19.2185 19.5117 20.6599 20.2148 20.6599 22.3711C20.6599 24.4688 19.1834 25.7227 16.7341 25.7227ZM14.4138 22.1719C14.6599 22.2656 14.9295 22.1367 15.0232 21.8906L15.9959 19.2188C16.0779 18.9727 15.9607 18.6914 15.7146 18.6094C15.4685 18.5156 15.199 18.6445 15.1052 18.8906L14.1326 21.5742C14.0505 21.8086 14.1677 22.0898 14.4138 22.1719ZM19.0545 22.1719C19.3005 22.0898 19.4295 21.8086 19.3474 21.5742L18.3748 18.8906C18.281 18.6445 18.0115 18.5156 17.7654 18.6094C17.5193 18.6914 17.3904 18.9727 17.4724 19.2188L18.4451 21.8906C18.5388 22.1367 18.8084 22.2656 19.0545 22.1719Z" fill="#717171"/>
<path d="M0.726229 24.6445C0.105136 26.0273 0.784823 27.6328 2.49576 27.6328C3.09342 27.6328 3.62076 27.3984 4.32389 26.8242L7.3942 24.2578L10.4762 26.8242C11.1794 27.3984 11.695 27.6328 12.3044 27.6328C14.0036 27.6328 14.6833 26.0273 14.0739 24.6445L8.94107 13.0781V7.75781C8.94107 5.15625 9.38639 3.17578 9.38639 2.71875C9.38639 2.03906 8.90592 1.54688 8.23795 1.54688C7.86295 1.54688 7.53482 1.69922 7.07779 2.19141L4.49967 5.16797C4.00748 5.74219 4.15982 6.51562 4.81607 6.85547L5.87076 7.37109V13.0312L0.726229 24.6445Z" fill="white"/>
<path d="M1.27697 24.8789C0.843376 25.8633 1.20666 27.0352 2.49572 27.0352C2.94103 27.0352 3.32775 26.8594 3.92541 26.3672L7.13635 23.6836C7.26525 23.5781 7.34728 23.543 7.39416 23.543C7.45275 23.543 7.52306 23.5781 7.65197 23.6836L10.8629 26.3672C11.4723 26.8594 11.8473 27.0352 12.3044 27.0352C13.5817 27.0352 13.9567 25.8633 13.5114 24.8789L8.34338 13.1953V7.75781C8.34338 5.08594 8.78869 3.09375 8.78869 2.71875C8.78869 2.36719 8.57775 2.14453 8.23791 2.14453C8.01525 2.14453 7.82775 2.27344 7.53478 2.58984L4.94494 5.55469C4.71056 5.82422 4.76916 6.16406 5.07385 6.31641C6.09338 6.78516 6.46838 6.92578 6.46838 7.75781V13.1602L1.27697 24.8789ZM2.49572 25.3477L7.32385 14.3086H7.46447L12.3044 25.3477C12.4333 25.6406 12.1989 25.793 11.9762 25.6055L8.36681 22.5938C7.99181 22.2891 7.68713 22.1367 7.39416 22.1367C7.11291 22.1367 6.80822 22.2891 6.4215 22.5938L2.81213 25.6055C2.60119 25.793 2.36681 25.6406 2.49572 25.3477ZM8.62463 19.9922C8.92931 19.9922 9.18713 19.7461 9.18713 19.4414C9.18713 19.125 8.94103 18.8555 8.62463 18.8555C8.31994 18.8555 8.06213 19.1367 8.06213 19.4414C8.06213 19.7344 8.31994 19.9922 8.62463 19.9922ZM9.24572 21.4688C9.55041 21.4688 9.81994 21.2109 9.81994 20.9062C9.81994 20.5898 9.55041 20.332 9.24572 20.332C8.94103 20.332 8.6715 20.6016 8.6715 20.9062C8.6715 21.2109 8.94103 21.4688 9.24572 21.4688ZM9.84338 22.9336C10.1598 22.9336 10.4293 22.6641 10.4293 22.3711C10.4293 22.0664 10.1715 21.7969 9.84338 21.7969C9.56213 21.7969 9.30431 22.0664 9.30431 22.3711C9.30431 22.6758 9.53869 22.9336 9.84338 22.9336Z" fill="#717171"/>
</g>
<defs>
<clipPath id="clip0_1339_702">
<rect width="30.6715" height="26.168" fill="white" transform="translate(0.5 1.5)"/>
</clipPath>
</defs>
</svg>
