<svg width="29" height="28" viewBox="0 0 29 28" fill="none" xmlns="http://www.w3.org/2000/svg">
<g clip-path="url(#clip0_1339_655)">
<path d="M5.42188 5.33594H12.1836C12.5938 5.33594 12.9219 4.99609 12.9219 4.57422C12.9219 4.15234 12.5938 3.80078 12.1836 3.80078H5.42188C5 3.80078 4.68359 4.15234 4.68359 4.57422C4.68359 4.99609 5 5.33594 5.42188 5.33594ZM1.22656 11.207H9.25391C9.67578 11.207 9.99219 10.8672 9.99219 10.4453C9.99219 10.0234 9.67578 9.67188 9.25391 9.67188H1.22656C0.816406 9.67188 0.5 10.0352 0.5 10.4453C0.5 10.8555 0.816406 11.207 1.22656 11.207ZM4.73047 17.0781H9.19531C9.60547 17.0781 9.92188 16.7383 9.92188 16.3164C9.92188 15.8945 9.60547 15.543 9.19531 15.543H4.73047C4.30859 15.543 3.99219 15.8945 3.99219 16.3164C3.99219 16.7383 4.30859 17.0781 4.73047 17.0781ZM1.64844 22.8789H7.76562C8.17578 22.8789 8.49219 22.5391 8.49219 22.1172C8.49219 21.6953 8.17578 21.3438 7.76562 21.3438H1.64844C1.23828 21.3438 0.921875 21.6953 0.921875 22.1172C0.921875 22.5391 1.23828 22.8789 1.64844 22.8789Z" fill="#717171"/>
<path d="M14.5156 26.2891L18.0312 22.0938C18.3828 21.6836 18.4297 21.5898 18.5703 21.1562L18.8281 20.3594L16.9414 17.9922L16.3672 20.6406L12.8984 24.7656C11.7969 26.0898 13.6016 27.3789 14.5156 26.2891ZM23.082 25.9375C23.8086 27.4023 25.9766 26.5 25.1914 24.9062L22.8008 20.0664C22.6133 19.7031 22.3555 19.3047 22.1328 18.9883L20.6211 16.8438L20.7266 16.5273C21.125 15.3086 21.2891 14.582 21.3711 13.375L21.6055 9.98828C21.7227 8.38281 20.7734 7.16406 19.1328 7.16406C17.8906 7.16406 17.0586 7.78516 15.9102 8.89844L14.1289 10.668C13.543 11.2422 13.3555 11.7109 13.2969 12.4727L13.0742 15.2383C13.0156 15.9414 13.4023 16.4336 14.0586 16.457C14.7148 16.5039 15.1133 16.1172 15.1719 15.3672L15.4297 12.332L16.2852 11.5586C16.6016 11.2773 17.0117 11.4648 16.9883 11.7812L16.8008 14.3477C16.6953 15.6484 17 16.2695 17.8906 17.3828L20.2695 20.3594C20.5039 20.6641 20.5391 20.7812 20.6328 20.9688L23.082 25.9375ZM27.1602 11.7344H24.4648L22.7539 9.84766L22.5547 12.6719L23.2344 13.3516C23.6094 13.7266 23.9492 13.8438 24.6406 13.8438H27.1602C27.875 13.8438 28.332 13.4453 28.332 12.7891C28.332 12.1562 27.8633 11.7344 27.1602 11.7344ZM20.4336 6.10938C21.8516 6.10938 22.9883 4.96094 22.9883 3.55469C22.9883 2.13672 21.8516 1 20.4336 1C19.0156 1 17.8789 2.13672 17.8789 3.55469C17.8789 4.96094 19.0156 6.10938 20.4336 6.10938Z" fill="#717171"/>
</g>
<defs>
<clipPath id="clip0_1339_655">
<rect width="27.832" height="26.3789" fill="white" transform="translate(0.5 1)"/>
</clipPath>
</defs>
</svg>
