<svg width="28" height="29" viewBox="0 0 28 29" fill="none" xmlns="http://www.w3.org/2000/svg">
<g clip-path="url(#clip0_1339_693)">
<path d="M1.30078 14.3984C4.99219 15.6992 9.15234 16.332 13.5586 16.332C17.9766 16.332 22.1367 15.6992 25.8281 14.3984L25.8164 12.418C22.2188 13.8242 18.082 14.5156 13.5586 14.5156C9.04688 14.5156 4.91016 13.8242 1.3125 12.4062L1.30078 14.3984ZM11.7422 18.4531H15.3867C16.207 18.4531 16.6875 17.9961 16.6875 17.1758V15.3711H10.4414V17.1758C10.4414 17.9961 10.9219 18.4531 11.7422 18.4531ZM3.62109 26.2109H23.5078C25.9336 26.2109 27.1289 25.0391 27.1289 22.6367V11.2344C27.1289 8.83203 25.9336 7.66016 23.5078 7.66016H3.62109C1.20703 7.66016 0 8.83203 0 11.2344V22.6367C0 25.0391 1.20703 26.2109 3.62109 26.2109ZM3.64453 24.3359C2.49609 24.3359 1.88672 23.75 1.88672 22.543V11.3281C1.88672 10.1328 2.49609 9.53516 3.64453 9.53516H23.4844C24.6328 9.53516 25.2422 10.1328 25.2422 11.3281V22.543C25.2422 23.75 24.6328 24.3359 23.4844 24.3359H3.64453ZM7.61719 8.67969H9.43359V6.60547C9.43359 5.71484 9.96094 5.21094 10.875 5.21094H16.2539C17.168 5.21094 17.6836 5.71484 17.6836 6.60547V8.65625H19.5V6.73438C19.5 4.53125 18.3398 3.5 16.2188 3.5H10.8984C8.89453 3.5 7.61719 4.53125 7.61719 6.73438V8.67969Z" fill="#717171"/>
</g>
<defs>
<clipPath id="clip0_1339_693">
<rect width="27.1289" height="22.7227" fill="white" transform="translate(0 3.5)"/>
</clipPath>
</defs>
</svg>
