<svg width="32" height="29" viewBox="0 0 32 29" fill="none" xmlns="http://www.w3.org/2000/svg">
<g clip-path="url(#clip0_1731_779)">
<path d="M10.0405 27.1992H21.9467C23.9623 27.1992 25.228 25.9453 25.2631 23.9414L25.4155 12.5039L28.2163 13.1484C29.3413 13.4062 30.0678 12.9375 30.3608 11.7773L31.392 7.61719C31.685 6.46875 31.2397 5.67188 30.1616 5.21484L22.0053 1.73438C21.3959 1.46485 20.9858 1.48828 20.4819 1.72266C18.9584 2.44922 17.7163 2.82422 15.9936 2.82422C14.2592 2.82422 13.0288 2.44922 11.4936 1.72266C11.0014 1.48828 10.5795 1.46485 9.97016 1.73438L1.82563 5.21484C0.735787 5.67188 0.302193 6.46875 0.583444 7.61719L1.62641 11.7773C1.90766 12.9375 2.63422 13.4062 3.77094 13.1484L6.57172 12.5039L6.72407 23.9414C6.74751 25.9453 8.01313 27.1992 10.0405 27.1992ZM10.0639 25.3945C9.11469 25.3945 8.54047 24.8086 8.52876 23.8477L8.36469 10.7813C8.36469 10.5 8.14204 10.3008 7.82563 10.3711L3.72407 11.2852C3.50141 11.332 3.34907 11.2383 3.30219 11.0508L2.37641 7.35938C2.3061 7.06641 2.38813 6.96094 2.62251 6.86719L11.0483 3.26953C12.6186 4.10156 14.142 4.52344 15.9936 4.52344C17.8452 4.52344 19.3569 4.10156 20.9389 3.26953L29.3647 6.86719C29.5873 6.96094 29.6811 7.06641 29.6108 7.35938L28.6733 11.0508C28.6264 11.2383 28.4858 11.332 28.2631 11.2852L24.1616 10.3711C23.8334 10.3008 23.6225 10.5 23.6225 10.7813L23.4584 23.8477C23.4467 24.8086 22.8725 25.3945 21.9233 25.3945H10.0639ZM15.9936 8.03906C18.7592 8.03906 21.2084 6.07031 21.7241 3.35156L20.0131 2.60156C19.767 4.67578 18.0092 6.23438 15.9936 6.23438C13.9663 6.23438 12.2202 4.67578 11.9741 2.60156L10.2631 3.35156C10.767 6.07031 13.2163 8.03906 15.9936 8.03906Z" fill="#717171"/>
</g>
<defs>
<clipPath id="clip0_1731_779">
<rect width="30.9801" height="25.6992" fill="white" transform="translate(0.5 1.5)"/>
</clipPath>
</defs>
</svg>
