<svg width="28" height="29" viewBox="0 0 28 29" fill="none" xmlns="http://www.w3.org/2000/svg">
<g clip-path="url(#clip0_1339_681)">
<path d="M13.5547 17.7266C18.6992 17.7266 22.1328 14.668 22.1328 10.0273C22.1328 7.61328 21.1133 4.4375 19.6367 2.17578C18.9453 1.09766 16.707 0.5 13.5664 0.5C10.4023 0.5 8.17578 1.09766 7.47266 2.17578C5.99609 4.4375 5 7.61328 5 10.0273C5 14.668 8.41016 17.7266 13.5547 17.7266ZM13.5547 15.957C9.37109 15.957 6.76953 13.6719 6.76953 10.0273C6.76953 8.28125 7.37891 6.01953 8.38672 4.12109C9.40625 4.67188 11.2578 4.98828 13.5664 4.98828C15.8516 4.98828 17.7031 4.67188 18.7227 4.12109C19.7422 6.01953 20.3633 8.28125 20.3633 10.0273C20.3633 13.6719 17.7383 15.957 13.5547 15.957ZM13.5664 3.33594C11.2109 3.33594 9.10156 3.00781 9.10156 2.73828C9.10156 2.49219 11.2461 2.16406 13.5664 2.16406C15.875 2.16406 18.0312 2.49219 18.0312 2.73828C18.0312 3.00781 15.8984 3.33594 13.5664 3.33594ZM13.5547 25.5781C14.0352 25.5781 14.4453 25.168 14.4453 24.6992V16.8008H12.6875V24.6992C12.6875 25.1797 13.0859 25.5781 13.5547 25.5781ZM13.5547 28.4141C17.7969 28.4023 20.3633 27.3594 20.3633 25.5547C20.3633 23.7617 17.7969 22.707 13.5547 22.707C9.32422 22.707 6.76953 23.7617 6.76953 25.5547C6.76953 27.3594 9.3125 28.4023 13.5547 28.4141ZM13.5547 26.6914C10.5664 26.6914 8.65625 26.2109 8.65625 25.5547C8.65625 24.9102 10.5781 24.418 13.5547 24.418C16.543 24.418 18.4766 24.9102 18.4766 25.5547C18.4766 26.2109 16.543 26.6914 13.5547 26.6914Z" fill="#717171"/>
</g>
<defs>
<clipPath id="clip0_1339_681">
<rect width="17.1328" height="27.9258" fill="white" transform="translate(5 0.5)"/>
</clipPath>
</defs>
</svg>
