<svg width="37" height="31" viewBox="0 0 37 31" fill="none" xmlns="http://www.w3.org/2000/svg">
<g clip-path="url(#clip0_1339_705)">
<path d="M18.6172 7.0625C21.4766 7.0625 24.3594 5.11719 24.3594 2.62109C24.3594 1.84766 23.9375 1.32031 22.9414 1.01562C21.6992 0.652344 20.1641 0.5 18.6172 0.5C17.082 0.5 15.5469 0.652344 14.3047 1.01562C13.3086 1.32031 12.8867 1.84766 12.8867 2.62109C12.8867 5.11719 15.7578 7.0625 18.6172 7.0625ZM18.6172 5.52734C16.4492 5.52734 14.7266 4.34375 14.4336 2.70312C14.4219 2.63281 14.4805 2.5625 14.5859 2.51562C15.8281 2.1875 17.2109 2.02344 18.6172 2.02344C20.0234 2.02344 21.4062 2.1875 22.6602 2.51562C22.7656 2.5625 22.8242 2.63281 22.8125 2.70312C22.5195 4.34375 20.7969 5.52734 18.6172 5.52734ZM17.8555 6.125V13.9414H19.3906V6.125H17.8555ZM3.00781 19.2617C4.39062 19.2617 5.51562 18.125 5.51562 16.7422C5.51562 15.3594 4.40234 14.2344 3.00781 14.2344C1.63672 14.2344 0.5 15.3594 0.5 16.7422C0.5 18.125 1.63672 19.2617 3.00781 19.2617ZM3.00781 17.9609C2.35156 17.9609 1.80078 17.4102 1.80078 16.7422C1.80078 16.0859 2.35156 15.5352 3.00781 15.5352C3.6875 15.5352 4.21484 16.0742 4.21484 16.7422C4.21484 17.4102 3.66406 17.9609 3.00781 17.9609ZM9.82812 19.2617C11.5273 19.2617 12.9219 17.8672 12.9219 16.1797C12.9219 14.4805 11.5273 13.0859 9.82812 13.0859C8.14062 13.0859 6.75781 14.4805 6.75781 16.1797C6.75781 17.8672 8.14062 19.2617 9.82812 19.2617ZM9.82812 17.7266C8.98438 17.7266 8.29297 17.0234 8.29297 16.1797C8.29297 15.3242 8.98438 14.6211 9.82812 14.6211C10.6836 14.6211 11.3867 15.3242 11.3867 16.1797C11.3867 17.0234 10.6836 17.7266 9.82812 17.7266ZM18.6289 22.0156C21.0547 22.0156 23.0117 20.0586 23.0117 17.6328C23.0117 15.1953 21.0547 13.2383 18.6289 13.2383C16.1914 13.2383 14.2344 15.1953 14.2344 17.6328C14.2344 20.0586 16.1914 22.0156 18.6289 22.0156ZM18.6172 20.4805C17.0352 20.4805 15.7695 19.2148 15.7695 17.6328C15.7695 16.0391 17.0352 14.7734 18.6172 14.7734C20.1992 14.7734 21.4766 16.0391 21.4766 17.6328C21.4766 19.2148 20.1992 20.4805 18.6172 20.4805ZM27.4062 19.2617C29.0938 19.2617 30.4766 17.8672 30.4766 16.1797C30.4766 14.4805 29.0938 13.0859 27.4062 13.0859C25.707 13.0859 24.3125 14.4805 24.3125 16.1797C24.3125 17.8672 25.707 19.2617 27.4062 19.2617ZM27.4062 17.7266C26.5508 17.7266 25.8477 17.0234 25.8477 16.1797C25.8477 15.3242 26.5508 14.6211 27.4062 14.6211C28.25 14.6211 28.9414 15.3242 28.9414 16.1797C28.9414 17.0234 28.25 17.7266 27.4062 17.7266ZM34.2266 19.2617C35.5977 19.2617 36.7344 18.125 36.7344 16.7422C36.7344 15.3594 35.5977 14.2344 34.2266 14.2344C32.832 14.2344 31.7188 15.3594 31.7188 16.7422C31.7188 18.125 32.8438 19.2617 34.2266 19.2617ZM34.2266 17.9609C33.5703 17.9609 33.0195 17.4102 33.0195 16.7422C33.0195 16.0742 33.5469 15.5352 34.2266 15.5352C34.8828 15.5352 35.4336 16.0859 35.4336 16.7422C35.4336 17.4102 34.8828 17.9609 34.2266 17.9609ZM18.6289 30.418C20.3047 30.418 21.6875 29.0469 21.6875 27.3594C21.6875 25.6719 20.3047 24.3008 18.6289 24.3008C16.9414 24.3008 15.5586 25.6719 15.5586 27.3594C15.5586 29.0469 16.9414 30.418 18.6289 30.418ZM18.6289 28.8828C17.7852 28.8828 17.0938 28.2031 17.0938 27.3594C17.0938 26.5156 17.7852 25.8359 18.6289 25.8359C19.4609 25.8359 20.1523 26.5156 20.1523 27.3594C20.1523 28.2031 19.4609 28.8828 18.6289 28.8828ZM4.05078 18.5H2.51562C2.57422 22.3672 7.92969 24.4648 10.8711 21.3828L10.0391 20.1055C8.10547 22.5195 4.10938 21.1602 4.05078 18.5ZM10.5898 18.5H9.05469C8.98438 22.5781 13.9766 24.4297 17.4102 21.2656L15.9453 20.4922C13.5898 22.2734 10.5312 21.1367 10.5898 18.5ZM26.6445 18.5C26.7031 21.1367 23.6445 22.2734 21.2891 20.4922L19.8242 21.2656C23.2578 24.4297 28.25 22.5781 28.1797 18.5H26.6445ZM33.1836 18.5C33.125 21.1602 29.1289 22.5195 27.1953 20.1055L26.3633 21.3828C29.3047 24.4648 34.6602 22.3672 34.7188 18.5H33.1836ZM17.8555 21.2305V25.2617H19.3906V21.2305H17.8555Z" fill="#717171"/>
</g>
<defs>
<clipPath id="clip0_1339_705">
<rect width="36.2344" height="29.9414" fill="white" transform="translate(0.5 0.5)"/>
</clipPath>
</defs>
</svg>
