<svg width="31" height="29" viewBox="0 0 31 29" fill="none" xmlns="http://www.w3.org/2000/svg">
<g clip-path="url(#clip0_1339_696)">
<path d="M22.9453 16.4727C26.4492 17.293 28.6289 18.6289 28.6289 20.0352C28.6289 22.3203 22.793 24.4297 15.2227 24.4297C7.65234 24.4297 1.81641 22.3203 1.81641 20.0352C1.81641 18.6406 3.9375 17.3281 7.37109 16.4844L6.48047 14.8203C2.4375 15.8867 0 17.75 0 20.0352C0 23.7148 6.32812 26.2461 15.2227 26.2461C24.1289 26.2461 30.4453 23.7148 30.4453 20.0352C30.4453 17.6914 27.8672 15.7812 23.6602 14.7383L22.9453 16.4727ZM24 8.33984V10.7891C24 15.8516 20.7656 19.2969 15.7617 19.2969H14.6719C9.65625 19.2969 6.44531 15.875 6.44531 10.7891V8.33984H4.55859V10.7891C4.55859 16.8945 8.625 21.1836 14.6719 21.1836H15.7617C21.8086 21.1836 25.8867 16.8828 25.8867 10.7891V8.33984H24ZM15.2227 13.168C21.5742 13.168 25.8867 11.2109 25.8867 8.33984C25.8867 5.45703 21.5859 3.5 15.2227 3.5C8.85938 3.5 4.55859 5.45703 4.55859 8.33984C4.55859 11.2109 8.87109 13.168 15.2227 13.168ZM15.2227 11.2812C10.1719 11.2812 6.44531 10.0039 6.44531 8.33984C6.44531 6.67578 10.1719 5.38672 15.2227 5.38672C20.2734 5.38672 24 6.67578 24 8.33984C24 10.0039 20.2734 11.2812 15.2227 11.2812ZM24.5742 15.8516H25.5352C28.2305 15.8516 29.8477 14.4336 29.8477 12.0781C29.8477 9.74609 28.2188 8.31641 25.5352 8.31641H24.75V10.2031H25.5352C27.0586 10.2031 27.9609 10.9063 27.9609 12.0781C27.9609 13.25 27.0586 13.9648 25.5352 13.9648H24.5742V15.8516Z" fill="#717171"/>
</g>
<defs>
<clipPath id="clip0_1339_696">
<rect width="30.4453" height="22.7461" fill="white" transform="translate(0 3.5)"/>
</clipPath>
</defs>
</svg>
