<svg width="28" height="29" viewBox="0 0 28 29" fill="none" xmlns="http://www.w3.org/2000/svg">
<g clip-path="url(#clip0_1339_678)">
<path d="M8.5 6.66406L13.2227 6.46484L17.9336 6.64062V1.74219C17.9336 1.00391 17.4062 0.511719 16.6445 0.511719L9.78906 0.523437C9.03906 0.523437 8.5 1.01562 8.5 1.75391V6.66406ZM9.78906 28.2266L16.6445 28.2383C17.4062 28.2383 17.9336 27.7344 17.9336 27.0078V22.0742L13.2227 22.2383L8.5 22.0625V26.9961C8.5 27.7227 9.03906 28.2266 9.78906 28.2266ZM13.2227 23.5742C18.3672 23.5742 22.4336 19.5078 22.4336 14.3633C22.4336 9.20703 18.3672 5.14062 13.2227 5.14062C8.06641 5.14062 4 9.20703 4 14.3633C4 19.5078 8.06641 23.5742 13.2227 23.5742ZM13.2227 21.8047C8.80469 21.8047 5.76953 18.7812 5.76953 14.3633C5.76953 9.94531 8.80469 6.91016 13.2227 6.91016C17.6289 6.91016 20.6641 9.94531 20.6641 14.3633C20.6641 18.7812 17.6289 21.8047 13.2227 21.8047ZM21.8008 16.1328H22.9961C23.3359 16.1328 23.582 15.8867 23.582 15.5352V13.168C23.582 12.8281 23.3359 12.5703 22.9961 12.5703H21.8008V16.1328Z" fill="#717171"/>
<path d="M13.9609 15.0195L17.7109 11.75C18.0391 11.457 18.0391 10.9531 17.7227 10.625C17.4297 10.3321 16.9492 10.3438 16.6094 10.625L13.2226 13.5664L11.0898 11.7734C10.7734 11.5039 10.2812 11.5508 9.98823 11.8789C9.70698 12.207 9.75386 12.7109 10.0937 13.0039L12.496 15.0195C12.9882 15.4531 13.4804 15.4531 13.9609 15.0195Z" fill="#717171"/>
</g>
<defs>
<clipPath id="clip0_1339_678">
<rect width="19.582" height="27.7383" fill="white" transform="translate(4 0.5)"/>
</clipPath>
</defs>
</svg>
