<svg width="35" height="29" viewBox="0 0 35 29" fill="none" xmlns="http://www.w3.org/2000/svg">
<g clip-path="url(#clip0_1339_717)">
<path d="M17.1211 5.5C7.64062 5.5 0 13.1523 0 22.6328C0 23.0664 0.339844 23.4062 0.761719 23.4062C1.19531 23.4062 1.53516 23.0664 1.53516 22.6328C1.53516 14.0312 8.50781 7.03516 17.1211 7.03516C25.7344 7.03516 32.7188 14.0312 32.7188 22.6328C32.7188 23.0664 33.0586 23.4062 33.4922 23.4062C33.9141 23.4062 34.2539 23.0664 34.2539 22.6328C34.2539 13.1523 26.6016 5.5 17.1211 5.5Z" fill="#717171"/>
<path d="M17.1211 8.06641C9.05859 8.06641 2.56641 14.5703 2.56641 22.6328C2.56641 23.0664 2.89453 23.4062 3.31641 23.4062C3.75 23.4062 4.10156 23.0664 4.10156 22.6328C4.10156 15.4492 9.92578 9.60156 17.1211 9.60156C24.3164 9.60156 30.1641 15.4492 30.1641 22.6328C30.1641 23.0664 30.4922 23.4062 30.9258 23.4062C31.3477 23.4062 31.6992 23.0664 31.6992 22.6328C31.6992 14.5703 25.1953 8.06641 17.1211 8.06641Z" fill="#717171"/>
<path d="M17.1211 10.6211C10.4766 10.6211 5.13281 15.9883 5.13281 22.6328C5.13281 23.0664 5.46094 23.4062 5.88281 23.4062C6.31641 23.4062 6.66797 23.0664 6.66797 22.6328C6.66797 16.8672 11.3438 12.1563 17.1211 12.1563C22.9102 12.1563 27.5977 16.8672 27.5977 22.6328C27.5977 23.0664 27.9258 23.4062 28.3594 23.4062C28.7812 23.4062 29.1328 23.0664 29.1328 22.6328C29.1328 15.9883 23.7656 10.6211 17.1211 10.6211Z" fill="#717171"/>
<path d="M17.1211 13.1875C11.8828 13.1875 7.6875 17.3945 7.6875 22.6328C7.6875 23.0664 8.02734 23.4062 8.44922 23.4062C8.88281 23.4062 9.22266 23.0664 9.22266 22.6328C9.22266 18.2734 12.7617 14.7227 17.1211 14.7227C21.4805 14.7227 25.0312 18.2734 25.0312 22.6328C25.0312 23.0664 25.3594 23.4062 25.8047 23.4062C26.2266 23.4062 26.5664 23.0664 26.5664 22.6328C26.5664 17.3945 22.3594 13.1875 17.1211 13.1875Z" fill="#717171"/>
<path d="M17.1211 15.7539C13.3125 15.7539 10.2539 18.8242 10.2539 22.6328C10.2539 23.0664 10.582 23.4062 11.0156 23.4062C11.4492 23.4062 11.7891 23.0664 11.7891 22.6328C11.7891 19.6914 14.168 17.2891 17.1211 17.2891C20.0742 17.2891 22.4648 19.6914 22.4648 22.6328C22.4648 23.0664 22.8047 23.4062 23.2383 23.4062C23.6602 23.4062 24 23.0664 24 22.6328C24 18.8242 20.9414 15.7539 17.1211 15.7539Z" fill="#717171"/>
</g>
<defs>
<clipPath id="clip0_1339_717">
<rect width="34.2539" height="17.918" fill="white" transform="translate(0 5.5)"/>
</clipPath>
</defs>
</svg>
