<svg width="28" height="29" viewBox="0 0 28 29" fill="none" xmlns="http://www.w3.org/2000/svg">
<g clip-path="url(#clip0_1339_687)">
<path d="M5.45703 11.3906H7.42578V7.42969C7.42578 6.84375 7.8125 6.46875 8.375 6.46875H18.9219C19.4961 6.46875 19.8711 6.84375 19.8711 7.42969V11.3906H21.8398V7.41797C21.8398 5.66016 20.7031 4.5 19.0273 4.5H8.28125C6.59375 4.5 5.45703 5.66016 5.45703 7.41797V11.3906ZM2 19.875C2 21.5625 3.11328 22.6758 4.77734 22.6758H22.5312C24.1836 22.6758 25.3086 21.5625 25.3086 19.875V12.75C25.3086 11.0742 24.1836 9.94922 22.5312 9.94922H21.1602C19.4961 9.94922 18.3828 11.0742 18.3828 12.75V15.8086H8.92578V12.75C8.92578 11.0742 7.80078 9.94922 6.14844 9.94922H4.77734C3.11328 9.94922 2 11.0742 2 12.75V19.875ZM3.99219 19.8516V12.7734C3.99219 12.2578 4.34375 11.918 4.87109 11.918H6.05469C6.58203 11.918 6.93359 12.2578 6.93359 12.7734V17.7773H20.375V12.7734C20.375 12.2578 20.7266 11.918 21.2539 11.918H22.4375C22.9648 11.918 23.3164 12.2578 23.3164 12.7734V19.8516C23.3164 20.3672 22.9648 20.707 22.4375 20.707H4.87109C4.34375 20.707 3.99219 20.3672 3.99219 19.8516ZM6.26562 25.0664H6.99219C7.625 25.0664 8.03516 24.668 8.03516 24.0352V21.5508H5.22266V24.0352C5.22266 24.668 5.63281 25.0664 6.26562 25.0664ZM20.3164 25.0664H21.0312C21.6641 25.0664 22.0742 24.668 22.0742 24.0352V21.5508H19.2734V24.0352C19.2734 24.668 19.6836 25.0664 20.3164 25.0664Z" fill="#717171"/>
</g>
<defs>
<clipPath id="clip0_1339_687">
<rect width="23.3086" height="20.5898" fill="white" transform="translate(2 4.5)"/>
</clipPath>
</defs>
</svg>
