<svg width="42" height="29" viewBox="0 0 42 29" fill="none" xmlns="http://www.w3.org/2000/svg">
<path d="M2.1685 24.6055H20.813C23.0396 24.6055 23.5669 22.4492 22.313 20.8906L13.5005 9.98047C12.9029 9.24219 12.188 8.85547 11.4849 8.85547C10.7935 8.85547 10.0787 9.24219 9.46928 9.98047L0.668497 20.8906C-0.585409 22.4492 -0.0697849 24.6055 2.1685 24.6055ZM2.44975 22.7188C2.05131 22.7188 1.9224 22.3438 2.15678 22.0508L10.9341 11.1758C11.0982 10.9766 11.2974 10.8594 11.4849 10.8594C11.6841 10.8594 11.8716 10.9766 12.0474 11.1758L20.8247 22.0508C21.0591 22.3438 20.9302 22.7188 20.5318 22.7188H2.44975ZM8.06303 17.2695C9.82084 17.2695 10.5122 15.875 11.4849 15.875C12.4576 15.875 13.1607 17.2695 14.9185 17.2695C16.1021 17.2695 16.8052 16.1562 17.4263 15.5352L16.5826 14.5859C15.9263 15.2188 15.4224 15.9805 14.9185 15.9805C14.0044 15.9805 13.1724 14.5859 11.4849 14.5859C9.80912 14.5859 8.97709 15.9805 8.06303 15.9805C7.55912 15.9805 7.05522 15.2188 6.39897 14.5859L5.55522 15.5352C6.17631 16.1562 6.86772 17.2695 8.06303 17.2695Z" fill="#717171"/>
<path d="M13.7232 24.6055H39.0943C41.2271 24.6055 41.7427 22.4961 40.688 21.1133L28.4419 5.03518C27.2935 3.52345 25.5357 3.50002 24.3638 5.03518L12.1294 21.125C11.0747 22.5078 11.5904 24.6055 13.7232 24.6055Z" fill="white"/>
<path d="M13.7232 24.6055H39.0943C41.2271 24.6055 41.7427 22.4961 40.688 21.1133L28.4419 5.03518C27.2935 3.52345 25.5357 3.50002 24.3638 5.03518L12.1294 21.125C11.0747 22.5078 11.5904 24.6055 13.7232 24.6055ZM14.1099 22.7188C13.6763 22.7188 13.5591 22.3555 13.7818 22.0508L25.8287 6.21877C26.1451 5.80861 26.6841 5.82033 26.9654 6.20705L39.024 22.0391C39.2583 22.3438 39.1294 22.7188 38.6958 22.7188H14.1099ZM22.5943 14.4102C24.5396 14.4102 25.3247 12.8633 26.4029 12.8633C27.4927 12.8633 28.2779 14.4102 30.2232 14.4102C31.4185 14.4102 32.1919 13.4375 32.8599 12.7227L31.9576 11.6211C31.3013 12.2891 30.774 12.9922 30.2232 12.9922C29.1919 12.9922 28.2779 11.4453 26.4029 11.4453C24.5396 11.4453 23.6255 12.9922 22.5943 12.9922C22.0318 12.9922 21.5044 12.2774 20.8365 11.6094L19.9341 12.6992C20.6138 13.4258 21.3872 14.4102 22.5943 14.4102Z" fill="#717171"/>
</svg>
