<svg width="30" height="30" viewBox="0 0 30 30" fill="none" xmlns="http://www.w3.org/2000/svg">
<g clip-path="url(#clip0_1339_669)">
<path d="M18.8758 22.3716C22.075 21.0357 19.0633 15.9146 16.4852 13.3131C13.7899 10.6412 8.97351 7.55919 7.42664 10.9342L0.477419 26.3326C-0.296018 28.0552 1.30945 29.7076 3.04382 28.981L18.8758 22.3716ZM1.95398 26.9654L7.80164 13.9927C8.38757 15.481 9.57117 17.1685 11.0946 18.7037C12.5946 20.192 14.2352 21.3521 15.7 21.9498L2.42273 27.4693C2.02429 27.6334 1.76648 27.3873 1.95398 26.9654ZM9.07898 11.2857C9.85242 10.5006 12.5243 11.649 15.325 14.4732C18.161 17.274 19.286 19.9576 18.5125 20.7193C17.7274 21.5162 15.0555 20.3677 12.243 17.5435C9.43054 14.7427 8.29382 12.0592 9.07898 11.2857Z" fill="#717171"/>
<path d="M10.8016 2.90686C11.5047 2.90686 12.0907 2.33264 12.0907 1.61779C12.0907 0.914673 11.5047 0.340454 10.8016 0.340454C10.0751 0.340454 9.51257 0.914673 9.51257 1.61779C9.51257 2.33264 10.0751 2.90686 10.8016 2.90686ZM12.3485 5.09826C12.2664 4.66467 11.9852 4.30139 11.5282 4.30139C11.0946 4.31311 10.6493 4.67639 10.743 5.14514C11.2704 7.89904 11.2704 10.735 10.743 13.5358C10.6375 13.9928 11.0946 14.3444 11.5164 14.3561C11.9618 14.3561 12.2547 14.0046 12.3368 13.571C12.8875 10.7116 12.8875 7.92248 12.3485 5.09826ZM18.0438 4.9342C19.2743 4.9342 20.2469 3.94983 20.2469 2.73107C20.2469 1.48889 19.2743 0.527954 18.0438 0.527954C16.8133 0.527954 15.8407 1.48889 15.8407 2.73107C15.8407 3.94983 16.8133 4.9342 18.0438 4.9342ZM15.8172 8.62561C16.3914 8.62561 16.8485 8.15686 16.8485 7.58264C16.8485 7.02014 16.3914 6.55139 15.8172 6.55139C15.2547 6.55139 14.7743 7.02014 14.7743 7.58264C14.7743 8.15686 15.2547 8.62561 15.8172 8.62561ZM27.6063 3.57483C28.1688 3.57483 28.6258 3.11779 28.6258 2.54357C28.6258 1.96936 28.1688 1.50061 27.6063 1.50061C27.0321 1.50061 26.575 1.96936 26.575 2.54357C26.575 3.11779 27.0321 3.57483 27.6063 3.57483ZM24.2196 4.33654L22.0282 6.52795C21.7235 6.84436 21.7235 7.35998 22.0282 7.67639C22.3563 7.99279 22.8719 7.99279 23.1883 7.67639L25.3797 5.4967C25.6844 5.18029 25.6844 4.65295 25.3797 4.33654C25.0633 4.03186 24.536 4.03186 24.2196 4.33654ZM19.8719 8.69592L13.8954 14.6608C13.5907 14.9772 13.5907 15.5046 13.8954 15.821C14.2118 16.1257 14.7391 16.1257 15.0555 15.821L21.0204 9.84436C21.3133 9.53967 21.3133 9.02404 21.0204 8.69592C20.6922 8.40295 20.1766 8.40295 19.8719 8.69592ZM28.6727 14.0866C29.3875 14.0866 29.9618 13.5124 29.9618 12.7858C29.9618 12.0827 29.3875 11.5085 28.6727 11.5085C27.9461 11.5085 27.3836 12.0827 27.3836 12.7858C27.3836 13.5124 27.9461 14.0866 28.6727 14.0866ZM23.6336 14.5671C24.6766 14.5671 25.5086 13.7585 25.5086 12.7155C25.5086 11.6843 24.6766 10.8522 23.6336 10.8522C22.6024 10.8522 21.7938 11.6843 21.7938 12.7155C21.7938 13.7585 22.6024 14.5671 23.6336 14.5671ZM28.2274 20.0866C28.9422 20.0866 29.5164 19.5241 29.5164 18.7975C29.5164 18.0827 28.9422 17.5085 28.2274 17.5085C27.5125 17.5085 26.9383 18.0827 26.9383 18.7975C26.9383 19.5241 27.5125 20.0866 28.2274 20.0866ZM24.6532 17.3678C21.8172 16.8288 19.0399 16.8288 16.1688 17.3678C15.7469 17.4616 15.3836 17.7546 15.3954 18.1882C15.3954 18.6217 15.7469 19.0788 16.2157 18.985C19.0164 18.4577 21.8407 18.446 24.6063 18.9733C25.0516 19.0671 25.4266 18.6335 25.4383 18.1882C25.45 17.7311 25.075 17.4499 24.6532 17.3678Z" fill="#717171"/>
</g>
<defs>
<clipPath id="clip0_1339_669">
<rect width="29.684" height="29.3789" fill="white" transform="translate(0.277832 0.340454)"/>
</clipPath>
</defs>
</svg>
