<svg width="28" height="28" viewBox="0 0 28 28" fill="none" xmlns="http://www.w3.org/2000/svg">
<g clip-path="url(#clip0_1339_672)">
<path d="M12.7109 3.50391H14.6562V0.984375C14.6562 0.445312 14.2227 0 13.6836 0C13.1445 0 12.7109 0.445312 12.7109 0.984375V3.50391ZM2.97266 14.8711C3.3125 14.8711 3.64062 14.6484 3.89844 14.2617C4.68359 13.0781 5.50391 12.5859 6.61719 12.5859C7.70703 12.5859 8.44531 13.0781 9.11328 14.25C9.37109 14.6836 9.61719 14.8711 9.94531 14.8711C10.2852 14.8711 10.543 14.6836 10.7773 14.25C11.4102 13.1719 12.5586 12.5156 13.6836 12.5156C14.8086 12.5156 15.957 13.1719 16.5898 14.25C16.8242 14.6836 17.0703 14.8711 17.4219 14.8711C17.75 14.8711 17.9961 14.6836 18.2422 14.25C18.9219 13.0781 19.6602 12.5859 20.75 12.5859C21.8633 12.5859 22.6836 13.0781 23.457 14.2617C23.7148 14.6484 24.043 14.8711 24.3945 14.8711C24.9805 14.8711 25.3672 14.3906 25.3672 13.7578C25.3672 9.10547 21.6992 2.57812 13.6836 2.57812C5.66797 2.57812 2 9.10547 2 13.7578C2 14.3906 2.38672 14.8711 2.97266 14.8711ZM13.6836 10.6875C12.2656 10.6875 10.9063 11.3203 10.0508 12.3633C9.99219 12.4453 9.94531 12.4453 9.88672 12.3633C9.11328 11.2969 8.02344 10.7578 6.61719 10.7578C5.11719 10.7578 3.86328 11.3672 2.83203 12.6328L3.89844 12.7266C4.4375 8.14453 8.375 4.40625 13.6836 4.40625C18.9805 4.40625 22.918 8.12109 23.457 12.7031L24.5234 12.6094C23.4922 11.3672 22.25 10.7578 20.75 10.7578C19.3438 10.7578 18.2539 11.2969 17.4688 12.3633C17.4219 12.4453 17.375 12.4336 17.3164 12.3633C16.4609 11.3203 15.0898 10.6875 13.6836 10.6875ZM10.9297 27.0938C13.0508 27.0938 14.6562 25.4883 14.6562 23.3555V11.9531H12.7109V23.3555C12.7109 24.375 11.9727 25.1133 10.9297 25.1133C9.91016 25.1133 9.18359 24.375 9.18359 23.3555C9.18359 22.6758 8.77344 22.2188 8.17578 22.2188C7.58984 22.2188 7.20312 22.6758 7.20312 23.3555C7.20312 25.4883 8.82031 27.0938 10.9297 27.0938Z" fill="#717171"/>
</g>
<defs>
<clipPath id="clip0_1339_672">
<rect width="23.3672" height="27.7148" fill="white" transform="translate(2)"/>
</clipPath>
</defs>
</svg>
