<svg width="29" height="28" viewBox="0 0 29 28" fill="none" xmlns="http://www.w3.org/2000/svg">
<g clip-path="url(#clip0_1339_667)">
<path d="M21.6875 14.6289C21.9102 14.6289 22.0625 14.4766 22.0859 14.2422C22.4727 11.1133 22.625 11.0312 25.8008 10.5156C26.0469 10.4805 26.1992 10.3516 26.1992 10.1289C26.1992 9.90625 26.0469 9.76562 25.8477 9.73047C22.6484 9.12109 22.4727 9.13281 22.0859 6.00391C22.0625 5.76953 21.9102 5.61719 21.6875 5.61719C21.4766 5.61719 21.3242 5.76953 21.2891 5.99219C20.8906 9.16797 20.7734 9.27344 17.5273 9.73047C17.3281 9.75391 17.1758 9.90625 17.1758 10.1289C17.1758 10.3398 17.3281 10.4805 17.5273 10.5156C20.7734 11.1367 20.8789 11.1367 21.2891 14.2656C21.3242 14.4766 21.4766 14.6289 21.6875 14.6289ZM16.0859 6.69531C16.2266 6.69531 16.2969 6.61328 16.3203 6.48438C16.6836 4.52734 16.6719 4.48047 18.7109 4.09375C18.8398 4.07031 18.9336 3.98828 18.9336 3.84766C18.9336 3.70703 18.8398 3.625 18.7109 3.60156C16.6719 3.19141 16.7422 3.14453 16.3203 1.21094C16.2969 1.08203 16.2266 1 16.0859 1C15.9453 1 15.8633 1.08203 15.8398 1.21094C15.4297 3.14453 15.5 3.19141 13.4609 3.60156C13.3203 3.625 13.2383 3.70703 13.2383 3.84766C13.2383 3.98828 13.3203 4.07031 13.4609 4.09375C15.5 4.50391 15.4766 4.52734 15.8398 6.48438C15.8633 6.61328 15.9453 6.69531 16.0859 6.69531Z" fill="#717171"/>
<path d="M12.9922 25.3397C17.2812 25.3397 20.7617 23.1835 22.332 19.5038C22.543 19.0116 22.4727 18.6132 22.25 18.3905C22.0508 18.1796 21.6875 18.1444 21.2773 18.2968C20.3867 18.6483 19.3203 18.8593 17.9727 18.8593C12.7227 18.8593 9.35938 15.578 9.35938 10.4453C9.35938 9.02729 9.62891 7.60933 9.99219 6.87104C10.2148 6.41401 10.2031 6.00386 9.99219 5.76948C9.76953 5.51167 9.37109 5.42964 8.83203 5.64057C5.23438 7.10542 2.75 10.8671 2.75 15.2382C2.75 20.9452 6.95703 25.3397 12.9922 25.3397ZM13.0156 23.5468C8.02344 23.5468 4.54297 19.9022 4.54297 15.0976C4.54297 12.1561 5.91406 9.54292 8.09375 7.87886C7.80078 8.65229 7.63672 9.81245 7.63672 10.9374C7.63672 16.7147 11.6211 20.582 17.5273 20.582C18.5703 20.582 19.5312 20.4413 20.0352 20.2772C18.5703 22.3046 15.957 23.5468 13.0156 23.5468Z" fill="#717171"/>
</g>
<defs>
<clipPath id="clip0_1339_667">
<rect width="23.4492" height="26.2383" fill="white" transform="translate(2.75 1)"/>
</clipPath>
</defs>
</svg>
