<svg width="29" height="29" viewBox="0 0 29 29" fill="none" xmlns="http://www.w3.org/2000/svg">
<g clip-path="url(#clip0_1309_494)">
<path d="M14.013 6.05859C14.5638 6.05859 15.0208 5.60156 15.0208 5.03906V2.51953C15.0208 1.95703 14.5638 1.5 14.013 1.5C13.4505 1.5 12.9935 1.95703 12.9935 2.51953V5.03906C12.9935 5.60156 13.4505 6.05859 14.013 6.05859ZM19.7552 8.46094C20.1536 8.84766 20.7981 8.85938 21.1966 8.46094L22.9895 6.66797C23.3763 6.28125 23.3763 5.625 22.9895 5.22656C22.6028 4.83984 21.9583 4.83984 21.5599 5.22656L19.7552 7.03125C19.3685 7.42969 19.3685 8.07422 19.7552 8.46094ZM22.1341 14.2148C22.1341 14.7656 22.6028 15.2227 23.1536 15.2227H25.6731C26.2239 15.2227 26.681 14.7656 26.681 14.2148C26.681 13.6641 26.2239 13.1953 25.6731 13.1953H23.1536C22.6028 13.1953 22.1341 13.6641 22.1341 14.2148ZM19.7552 19.9688C19.3685 20.3672 19.3685 21.0117 19.7552 21.3984L21.5599 23.2148C21.9583 23.5898 22.6028 23.5781 22.9895 23.2031C23.3763 22.8047 23.3763 22.1602 22.9895 21.7734L21.1849 19.9688C20.7981 19.5938 20.1536 19.5938 19.7552 19.9688ZM14.013 22.3711C13.4505 22.3711 12.9935 22.8281 12.9935 23.3789V25.9102C12.9935 26.4609 13.4505 26.918 14.013 26.918C14.5638 26.918 15.0208 26.4609 15.0208 25.9102V23.3789C15.0208 22.8281 14.5638 22.3711 14.013 22.3711ZM8.25903 19.9688C7.86059 19.5938 7.20434 19.5938 6.81763 19.9688L5.02466 21.7617C4.63794 22.1484 4.63794 22.793 5.01294 23.1914C5.39966 23.5664 6.05591 23.5781 6.45434 23.2031L8.24731 21.3984C8.63403 21.0117 8.63403 20.3672 8.25903 19.9688ZM5.88013 14.2148C5.88013 13.6641 5.41137 13.1953 4.86059 13.1953H2.34106C1.79028 13.1953 1.33325 13.6641 1.33325 14.2148C1.33325 14.7656 1.79028 15.2227 2.34106 15.2227H4.86059C5.41137 15.2227 5.88013 14.7656 5.88013 14.2148ZM8.24731 8.46094C8.63403 8.08594 8.63403 7.41797 8.25903 7.03125L6.46606 5.22656C6.07934 4.85156 5.42309 4.83984 5.03637 5.22656C4.64966 5.625 4.64966 6.28125 5.02466 6.65625L6.81763 8.46094C7.20434 8.84766 7.84887 8.84766 8.24731 8.46094Z" fill="#717171"/>
<path d="M14.0013 20.1914C17.2591 20.1914 19.9661 17.4844 19.9661 14.2148C19.9661 10.9336 17.2591 8.22656 14.0013 8.22656C10.7434 8.22656 8.03638 10.9336 8.03638 14.2148C8.03638 17.4844 10.7434 20.1914 14.0013 20.1914ZM14.0013 18.3984C11.7161 18.3984 9.81764 16.5 9.81764 14.2148C9.81764 11.918 11.7161 10.0195 14.0013 10.0195C16.2864 10.0195 18.1849 11.918 18.1849 14.2148C18.1849 16.5 16.2864 18.3984 14.0013 18.3984Z" fill="#717171"/>
</g>
<defs>
<clipPath id="clip0_1309_494">
<rect width="25.3477" height="25.4414" fill="white" transform="translate(1.33325 1.5)"/>
</clipPath>
</defs>
</svg>
