<svg width="29" height="29" viewBox="0 0 29 29" fill="none" xmlns="http://www.w3.org/2000/svg">
<g clip-path="url(#clip0_1339_664)">
<path d="M9.13672 17.625H12.2188C10.6367 16.957 9.5 15.3633 9.5 13.5234C9.5 11.0391 11.5391 9 14.0234 9C16.5078 9 18.5469 11.0391 18.5469 13.5234C18.5469 15.3633 17.4102 16.957 15.8281 17.625H18.8984C19.8594 16.5234 20.4336 15.082 20.4336 13.5234C20.4336 10.0078 17.5156 7.10156 14.0234 7.10156C10.5195 7.10156 7.61328 10.0078 7.61328 13.5234C7.61328 15.082 8.1875 16.5234 9.13672 17.625ZM1.54297 14.168H4.42578C5.03516 14.168 5.49219 13.7461 5.48047 13.2188C5.46875 12.7031 5.03516 12.2695 4.42578 12.2695H1.54297C0.933594 12.2695 0.5 12.6914 0.5 13.2188C0.5 13.7461 0.933594 14.168 1.54297 14.168ZM7.97656 7.47656C8.33984 7.10156 8.33984 6.49219 7.90625 6.05859L5.86719 4.01953C5.43359 3.58594 4.83594 3.59766 4.46094 3.96094C4.08594 4.32422 4.08594 4.93359 4.51953 5.36719L6.55859 7.40625C6.99219 7.83984 7.61328 7.85156 7.97656 7.47656ZM14.0234 4.98047C14.5508 4.96875 14.9727 4.52344 14.9727 3.92578V1.04297C14.9727 0.433594 14.5508 0 14.0234 0C13.4961 0 13.0742 0.433594 13.0742 1.04297V3.92578C13.0742 4.52344 13.4961 4.99219 14.0234 4.98047ZM20.0703 7.47656C20.4336 7.83984 21.0547 7.83984 21.4883 7.40625L23.5273 5.36719C23.9609 4.93359 23.9492 4.33594 23.5742 3.96094C23.2227 3.58594 22.6133 3.58594 22.168 4.01953L20.1289 6.05859C19.707 6.49219 19.6953 7.11328 20.0703 7.47656ZM23.6211 14.168H26.5039C27.1133 14.168 27.5469 13.7461 27.5469 13.2188C27.5469 12.7031 27.1133 12.2695 26.5039 12.2695H23.6211C23.0117 12.2695 22.5547 12.6914 22.5664 13.2188C22.5781 13.7461 23.0117 14.168 23.6211 14.168Z" fill="#717171"/>
<path d="M3.00781 18.7148H26.8086C27.2188 18.7148 27.5469 18.3984 27.5469 17.9766C27.5469 17.5547 27.2188 17.2383 26.8086 17.2383H3.00781C2.58594 17.2383 2.26953 17.5547 2.26953 17.9766C2.26953 18.3984 2.58594 18.7148 3.00781 18.7148ZM1.23828 23.2266H25.0391C25.4492 23.2266 25.7773 22.8984 25.7773 22.4766C25.7773 22.0547 25.4492 21.7383 25.0391 21.7383H1.23828C0.828125 21.7383 0.5 22.0547 0.5 22.4766C0.5 22.8984 0.828125 23.2266 1.23828 23.2266ZM3.00781 27.7266H26.8086C27.2188 27.7266 27.5469 27.4102 27.5469 26.9883C27.5469 26.5547 27.2188 26.2383 26.8086 26.2383H3.00781C2.58594 26.2383 2.26953 26.5547 2.26953 26.9883C2.26953 27.4102 2.58594 27.7266 3.00781 27.7266Z" fill="#717171"/>
</g>
<defs>
<clipPath id="clip0_1339_664">
<rect width="27.0469" height="28.207" fill="white" transform="translate(0.5)"/>
</clipPath>
</defs>
</svg>
