<svg width="34" height="29" viewBox="0 0 34 29" fill="none" xmlns="http://www.w3.org/2000/svg">
<g clip-path="url(#clip0_1309_642)">
<path d="M8.98438 10.8086H10.8711V7.41016C10.8711 5.53516 12.3242 4.39844 14.5977 4.39844H18.9453C21.2305 4.39844 22.6836 5.53516 22.6836 7.41016V10.8086H24.5703V7.41016C24.5703 4.38672 22.3906 2.51172 18.9453 2.51172H14.5977C11.1641 2.51172 8.98438 4.38672 8.98438 7.41016V10.8086ZM4.41406 25.9023H29.1289C31.5312 25.9023 33.043 24.4141 33.043 22.0469V15.3789C33.043 11.8867 30.6055 9.48438 27.0781 9.48438H6.46484C2.9375 9.48438 0.5 11.8867 0.5 15.3789V22.0469C0.5 24.4141 2.01172 25.9023 4.41406 25.9023ZM4.4375 24.0156C3.17188 24.0156 2.38672 23.2188 2.38672 21.9531V15.4727C2.38672 13.0352 4.05078 11.3711 6.48828 11.3711H27.0547C29.4922 11.3711 31.1562 13.0352 31.1562 15.4727V21.9531C31.1562 23.2188 30.3711 24.0156 29.1055 24.0156H4.4375ZM7.37891 25.1055H8.91406V10.2695H7.37891V25.1055ZM10.9297 25.1055H12.4648V10.2695H10.9297V25.1055ZM21.0898 25.1055H22.625V10.2695H21.0898V25.1055ZM24.6406 25.1055H26.1758V10.2695H24.6406V25.1055ZM11.6797 17.418H21.8398V15.8828H11.6797V17.418Z" fill="#717171"/>
</g>
<defs>
<clipPath id="clip0_1309_642">
<rect width="32.543" height="23.4023" fill="white" transform="translate(0.5 2.5)"/>
</clipPath>
</defs>
</svg>
