<svg width="29" height="30" viewBox="0 0 29 30" fill="none" xmlns="http://www.w3.org/2000/svg">
<g clip-path="url(#clip0_1339_675)">
<path d="M25.3281 13.4375L23.7344 12.5234L25.1523 11.7031C25.457 11.5273 25.5742 11.1758 25.4102 10.8828C25.2344 10.5664 24.8711 10.5195 24.543 10.707L22.5508 11.8438L19.0586 9.86328L22.5859 7.87109L24.5781 9.01953C24.8945 9.20703 25.2461 9.14844 25.4453 8.84375C25.5977 8.53906 25.4805 8.1875 25.1875 8.02344L23.7695 7.20312L25.3398 6.3125C25.7031 6.10156 25.832 5.73828 25.6328 5.39844C25.457 5.07031 25.0586 5 24.7422 5.1875L23.1484 6.11328V4.49609C23.1484 4.13281 22.9023 3.86328 22.5742 3.86328C22.1992 3.86328 21.9766 4.13281 21.9766 4.53125L21.9648 6.80469L18.4727 8.85547L18.5078 4.77734L20.4883 3.62891C20.8164 3.42969 20.9453 3.10156 20.7695 2.78516C20.5938 2.49219 20.2422 2.42188 19.9375 2.59766L18.5195 3.41797L18.5312 1.63672C18.5312 1.23828 18.2852 0.921875 17.8984 0.921875C17.5 0.921875 17.2656 1.23828 17.2656 1.63672L17.2773 3.41797L15.8594 2.59766C15.5547 2.42188 15.1914 2.49219 15.0273 2.78516C14.8516 3.10156 14.9805 3.42969 15.3086 3.62891L17.2891 4.77734L17.3242 8.85547L13.8203 6.80469L13.8086 4.53125C13.8086 4.13281 13.5977 3.86328 13.2227 3.86328C12.8945 3.86328 12.6484 4.13281 12.6484 4.49609V6.11328L11.0547 5.1875C10.7383 5 10.3399 5.07031 10.1641 5.39844C9.96486 5.73828 10.0938 6.10156 10.4571 6.3125L12.0274 7.20312L10.6094 8.02344C10.3164 8.1875 10.1875 8.53906 10.3516 8.84375C10.5508 9.14844 10.9024 9.20703 11.2188 9.01953L13.2109 7.87109L16.7266 9.86328L13.2461 11.8438L11.2539 10.707C10.9258 10.5195 10.5625 10.5664 10.3867 10.8828C10.2227 11.1758 10.3399 11.5273 10.6446 11.7031L12.0625 12.5234L10.4688 13.4375C10.1172 13.625 9.96486 14 10.1641 14.3398C10.3516 14.6797 10.75 14.7266 11.1016 14.5273L12.6719 13.6016L12.6836 15.2305C12.6836 15.5586 12.9297 15.8516 13.2578 15.8516C13.6211 15.8398 13.8438 15.5586 13.8438 15.1953V12.9102L17.3242 10.8711L17.2891 14.9258L15.3203 16.0742C14.9922 16.2734 14.8516 16.6016 15.0391 16.918C15.2031 17.2109 15.5664 17.2812 15.8711 17.1055L17.2773 16.2969L17.2656 18.0898C17.2656 18.4883 17.5 18.8047 17.8984 18.8047C18.2852 18.8047 18.5312 18.4883 18.5312 18.0898L18.5195 16.2969L19.9258 17.1055C20.2305 17.2812 20.582 17.2109 20.7578 16.918C20.9453 16.6016 20.8047 16.2734 20.4766 16.0742L18.5078 14.9258L18.4727 10.8711L21.9414 12.9102V15.1953C21.9414 15.5586 22.1758 15.8398 22.5391 15.8516C22.8672 15.8516 23.1133 15.5586 23.1133 15.2305L23.125 13.6016L24.6953 14.5273C25.0469 14.7266 25.4336 14.6797 25.6328 14.3398C25.832 14 25.6797 13.625 25.3281 13.4375Z" fill="#717171"/>
<path d="M10 29.2695C14.125 29.2695 17.4766 25.9062 17.4766 21.7812C17.4766 19.6836 16.6328 17.8203 15.0391 16.3203L15.0508 5.86719C15.0508 2.75 12.9531 0.5 10 0.5C7.02344 0.5 4.92578 2.75 4.92578 5.86719L4.9375 16.3203C3.34375 17.8203 2.5 19.6836 2.5 21.7812C2.5 25.9062 5.85156 29.2695 10 29.2695Z" fill="white"/>
<path d="M10 27.8984C13.375 27.8984 16.1055 25.1562 16.1055 21.7812C16.1055 20 15.3789 18.4414 13.9727 17.1758C13.7266 16.9531 13.668 16.8125 13.668 16.4609L13.6797 5.86718C13.6797 3.48827 12.1797 1.85938 10 1.85938C7.79688 1.85938 6.28516 3.48827 6.28516 5.86718L6.29688 16.4609C6.29688 16.8125 6.24999 16.9531 5.99218 17.1758C4.59765 18.4414 3.85938 20 3.85938 21.7812C3.85938 25.1562 6.60156 27.8984 10 27.8984ZM10 26.1992C7.55078 26.1992 5.58203 24.207 5.58203 21.7812C5.58203 20.3164 6.27344 18.9922 7.51562 18.1602C7.87891 17.9141 8.01952 17.6914 8.01952 17.2109V5.9375C8.01952 4.53125 8.82812 3.58203 10 3.58203C11.1484 3.58203 11.957 4.53125 11.957 5.9375V17.2109C11.957 17.6914 12.0977 17.9141 12.4609 18.1602C13.7031 18.9922 14.3945 20.3164 14.3945 21.7812C14.3945 24.207 12.4141 26.1992 10 26.1992Z" fill="#717171"/>
<path d="M9.98828 24.6172C11.5586 24.6172 12.8242 23.3516 12.8242 21.7695C12.8242 20.668 12.2031 19.7656 11.3008 19.2734C10.9258 19.0742 10.7969 18.9336 10.7969 18.3594V16.0156C10.7969 15.4531 10.4336 15.0898 9.98828 15.0898C9.53125 15.0898 9.17969 15.4531 9.17969 16.0156V18.3594C9.17969 18.9336 9.05078 19.0742 8.67578 19.2734C7.77344 19.7656 7.15234 20.668 7.15234 21.7695C7.15234 23.3516 8.41797 24.6172 9.98828 24.6172Z" fill="#717171"/>
</g>
<defs>
<clipPath id="clip0_1339_675">
<rect width="23.2263" height="28.793" fill="white" transform="translate(2.5 0.5)"/>
</clipPath>
</defs>
</svg>
