<svg width="29" height="38" viewBox="0 0 29 38" fill="none" xmlns="http://www.w3.org/2000/svg">
<path d="M18.5039 29.0393C20.0508 29.0393 21.3164 27.7736 21.3164 26.2268C21.3164 24.6799 20.0508 23.4143 18.5039 23.4143C16.957 23.4143 15.6797 24.6799 15.6797 26.2268C15.6797 27.7736 16.957 29.0393 18.5039 29.0393ZM18.5039 27.5979C17.7305 27.5979 17.1328 26.9885 17.1328 26.2268C17.1328 25.4416 17.7305 24.8557 18.5039 24.8557C19.2773 24.8557 19.875 25.4416 19.875 26.2268C19.875 26.9885 19.2773 27.5979 18.5039 27.5979ZM16.6406 25.2776H3.43359C2.90625 25.2776 2.49609 25.6994 2.49609 26.2268C2.49609 26.7541 2.90625 27.1643 3.43359 27.1643H16.6406V25.2776ZM25.207 25.2776H20.543V27.1643H25.207C25.6875 27.1643 26.1094 26.7541 26.1094 26.2268C26.1094 25.6994 25.6875 25.2776 25.207 25.2776ZM10.2305 21.8908C11.7773 21.8908 13.043 20.6135 13.043 19.0666C13.043 17.5198 11.7773 16.2541 10.2305 16.2541C8.68359 16.2541 7.41797 17.5198 7.41797 19.0666C7.41797 20.6135 8.68359 21.8908 10.2305 21.8908ZM10.2305 20.4377C9.46875 20.4377 8.85937 19.8283 8.85937 19.0666C8.85937 18.2932 9.46875 17.6955 10.2305 17.6955C11.0039 17.6955 11.6016 18.2932 11.6016 19.0666C11.6016 19.8283 11.0039 20.4377 10.2305 20.4377ZM3.38672 18.1174C2.90625 18.1174 2.49609 18.5393 2.49609 19.0666C2.49609 19.594 2.90625 20.0041 3.38672 20.0041H8.21484V18.1174H3.38672ZM25.1602 18.1174H12.0938V20.0041H25.1602C25.6875 20.0041 26.1094 19.594 26.1094 19.0666C26.1094 18.5393 25.6875 18.1174 25.1602 18.1174ZM18.5039 14.719C20.0508 14.719 21.3164 13.4534 21.3164 11.9065C21.3164 10.3596 20.0508 9.08226 18.5039 9.08226C16.957 9.08226 15.6797 10.3596 15.6797 11.9065C15.6797 13.4534 16.957 14.719 18.5039 14.719ZM18.5039 13.2776C17.7305 13.2776 17.1328 12.6682 17.1328 11.8948C17.1328 11.1213 17.7305 10.5237 18.5039 10.5237C19.2773 10.5237 19.875 11.1213 19.875 11.8948C19.875 12.6682 19.2773 13.2776 18.5039 13.2776ZM16.6992 10.969H3.43359C2.90625 10.969 2.49609 11.3791 2.49609 11.9065C2.49609 12.4338 2.90625 12.8557 3.43359 12.8557H16.6992V10.969ZM25.207 10.969H20.3789V12.8557H25.207C25.6875 12.8557 26.1094 12.4338 26.1094 11.9065C26.1094 11.3791 25.6875 10.969 25.207 10.969Z" fill="#717171"/>
</svg>
