<svg width="28" height="30" viewBox="0 0 28 30" fill="none" xmlns="http://www.w3.org/2000/svg">
<g clip-path="url(#clip0_1304_393)">
<path d="M13.1836 6.20703C13.3359 6.20703 13.418 6.11328 13.4414 5.97266C13.793 4.07422 13.7578 3.98047 15.7969 3.61719C15.9375 3.58203 16.0312 3.5 16.0312 3.34766C16.0312 3.20703 15.9375 3.11328 15.7969 3.08984C13.7578 2.72656 13.793 2.63281 13.4414 0.734375C13.418 0.59375 13.3359 0.5 13.1836 0.5C13.0312 0.5 12.9492 0.59375 12.9258 0.734375C12.5742 2.63281 12.6094 2.72656 10.5703 3.08984C10.418 3.11328 10.3359 3.20703 10.3359 3.34766C10.3359 3.5 10.418 3.58203 10.5703 3.61719C12.6094 3.98047 12.5742 4.07422 12.9258 5.97266C12.9492 6.11328 13.0312 6.20703 13.1836 6.20703Z" fill="#717171"/>
<path d="M7.51172 14.2695C7.73438 14.2695 7.88672 14.1172 7.91016 13.9062C8.33203 10.7773 8.4375 10.7773 11.6719 10.1563C11.8711 10.1211 12.0234 9.98047 12.0234 9.75781C12.0234 9.54688 11.8711 9.39453 11.6719 9.37109C8.4375 8.91406 8.32031 8.80859 7.91016 5.63281C7.88672 5.41016 7.73438 5.25781 7.51172 5.25781C7.30078 5.25781 7.14844 5.41016 7.11328 5.64453C6.73828 8.77344 6.5625 8.76172 3.35156 9.37109C3.15234 9.40625 3 9.54688 3 9.75781C3 9.99219 3.15234 10.1211 3.39844 10.1563C6.58594 10.6719 6.73828 10.7539 7.11328 13.8828C7.14844 14.1172 7.30078 14.2695 7.51172 14.2695Z" fill="#717171"/>
<path d="M15.457 27.2305C15.7617 27.2305 15.9844 27.0078 16.043 26.6914C16.875 20.2812 17.7773 19.2969 24.1289 18.5938C24.457 18.5586 24.6797 18.3242 24.6797 18.0078C24.6797 17.7031 24.457 17.4688 24.1289 17.4336C17.7773 16.7305 16.875 15.7461 16.043 9.32421C15.9844 9.0078 15.7617 8.79688 15.457 8.79688C15.1523 8.79688 14.9297 9.0078 14.8828 9.32421C14.0508 15.7461 13.1367 16.7305 6.79688 17.4336C6.45702 17.4688 6.23438 17.7031 6.23438 18.0078C6.23438 18.3242 6.45702 18.5586 6.79688 18.5938C13.125 19.4258 14.0039 20.2812 14.8828 26.6914C14.9297 27.0078 15.1523 27.2305 15.457 27.2305Z" fill="#717171"/>
</g>
<defs>
<clipPath id="clip0_1304_393">
<rect width="21.6797" height="28.8867" fill="white" transform="translate(3 0.5)"/>
</clipPath>
</defs>
</svg>
