<svg width="32" height="28" viewBox="0 0 32 28" fill="none" xmlns="http://www.w3.org/2000/svg">
<path d="M26.8316 25.1094C27.3237 25.6133 28.1675 25.6133 28.6362 25.1094C29.1167 24.5938 29.1167 23.7969 28.6362 23.3047L17.4917 12.125C16.9995 11.6328 16.1558 11.6328 15.687 12.125C15.1948 12.6406 15.2066 13.4492 15.687 13.9414L26.8316 25.1094ZM27.2417 24.3008L20.0112 17.0586L20.5972 16.4961L27.8276 23.7383C28.0386 23.9375 28.0855 24.1719 27.898 24.3828C27.687 24.5586 27.4644 24.5234 27.2417 24.3008Z" fill="white"/>
<path d="M12.3823 25.2969C12.5933 25.2969 12.7456 25.1445 12.7808 24.9219C13.1558 21.793 13.3081 21.7109 16.4956 21.1953C16.7417 21.1484 16.894 21.0312 16.894 20.7969C16.894 20.5742 16.7417 20.4336 16.5425 20.3984C13.3315 19.7891 13.1558 19.8008 12.7808 16.6719C12.7456 16.4492 12.5933 16.2969 12.3823 16.2969C12.1597 16.2969 12.0073 16.4492 11.9839 16.6602C11.5737 19.8359 11.4683 19.9414 8.22217 20.3984C8.02295 20.4219 7.8706 20.5742 7.8706 20.7969C7.8706 21.0195 8.02295 21.1484 8.22217 21.1953C11.4683 21.8164 11.562 21.8164 11.9839 24.9453C12.0073 25.1445 12.1597 25.2969 12.3823 25.2969ZM6.81591 15.0898C6.97998 15.0898 7.07373 14.9727 7.10888 14.8203C7.50732 12.5938 7.51904 12.4531 9.87451 12.0547C10.0269 12.0195 10.144 11.9258 10.144 11.7617C10.144 11.5977 10.0269 11.4922 9.87451 11.4688C7.51904 11.0586 7.50732 10.918 7.10888 8.69141C7.07373 8.53906 6.97998 8.43359 6.81591 8.43359C6.65185 8.43359 6.5581 8.53906 6.52295 8.69141C6.12451 10.918 6.11279 11.0586 3.75732 11.4688C3.60498 11.4922 3.48779 11.5977 3.48779 11.7617C3.48779 11.9258 3.60498 12.0195 3.75732 12.0547C6.11279 12.4531 6.12451 12.5938 6.52295 14.8203C6.5581 14.9727 6.65185 15.0898 6.81591 15.0898ZM13.2378 7.58984C13.3784 7.58984 13.4487 7.50781 13.4722 7.37891C13.8706 5.50391 13.8472 5.43359 15.8159 5.03516C15.9448 5.01172 16.0386 4.92969 16.0386 4.80078C16.0386 4.66016 15.9448 4.57812 15.8159 4.55469C13.8472 4.15625 13.8706 4.08594 13.4722 2.22266C13.4487 2.09375 13.3784 2 13.2378 2C13.0972 2 13.0269 2.09375 13.0034 2.22266C12.605 4.08594 12.6284 4.15625 10.6597 4.55469C10.5308 4.57812 10.437 4.66016 10.437 4.80078C10.437 4.92969 10.5308 5.01172 10.6597 5.03516C12.6284 5.43359 12.605 5.50391 13.0034 7.37891C13.0269 7.50781 13.0972 7.58984 13.2378 7.58984ZM22.9175 11.7266C23.0816 11.7266 23.1753 11.6211 23.2105 11.4688C23.6089 9.24219 23.6206 9.10156 25.9761 8.69141C26.1401 8.66797 26.2456 8.5625 26.2456 8.39844C26.2456 8.23438 26.1401 8.14062 25.9761 8.10547C23.6206 7.70703 23.6089 7.56641 23.2105 5.33984C23.1753 5.1875 23.0816 5.07031 22.9175 5.07031C22.7534 5.07031 22.6597 5.1875 22.6245 5.33984C22.2261 7.56641 22.2144 7.70703 19.8589 8.10547C19.7066 8.14062 19.5894 8.23438 19.5894 8.39844C19.5894 8.5625 19.7066 8.66797 19.8589 8.69141C22.2144 9.10156 22.2261 9.24219 22.6245 11.4688C22.6597 11.6211 22.7534 11.7266 22.9175 11.7266Z" fill="white"/>
</svg>
