<svg width="25" height="21" viewBox="0 0 25 21" fill="none" xmlns="http://www.w3.org/2000/svg">
<path d="M16.5078 20.0393C18.0547 20.0393 19.3203 18.7736 19.3203 17.2268C19.3203 15.6799 18.0547 14.4143 16.5078 14.4143C14.9609 14.4143 13.6836 15.6799 13.6836 17.2268C13.6836 18.7736 14.9609 20.0393 16.5078 20.0393ZM16.5078 18.5979C15.7344 18.5979 15.1367 17.9885 15.1367 17.2268C15.1367 16.4416 15.7344 15.8557 16.5078 15.8557C17.2812 15.8557 17.8789 16.4416 17.8789 17.2268C17.8789 17.9885 17.2812 18.5979 16.5078 18.5979ZM14.6445 16.2776H1.4375C0.910156 16.2776 0.5 16.6994 0.5 17.2268C0.5 17.7541 0.910156 18.1643 1.4375 18.1643H14.6445V16.2776ZM23.2109 16.2776H18.5469V18.1643H23.2109C23.6914 18.1643 24.1133 17.7541 24.1133 17.2268C24.1133 16.6994 23.6914 16.2776 23.2109 16.2776ZM8.23438 12.8908C9.78125 12.8908 11.0469 11.6135 11.0469 10.0666C11.0469 8.51978 9.78125 7.25415 8.23438 7.25415C6.6875 7.25415 5.42188 8.51978 5.42188 10.0666C5.42188 11.6135 6.6875 12.8908 8.23438 12.8908ZM8.23438 11.4377C7.47266 11.4377 6.86328 10.8283 6.86328 10.0666C6.86328 9.29322 7.47266 8.69556 8.23438 8.69556C9.00781 8.69556 9.60547 9.29322 9.60547 10.0666C9.60547 10.8283 9.00781 11.4377 8.23438 11.4377ZM1.39062 9.11743C0.910156 9.11743 0.5 9.53931 0.5 10.0666C0.5 10.594 0.910156 11.0041 1.39062 11.0041H6.21875V9.11743H1.39062ZM23.1641 9.11743H10.0977V11.0041H23.1641C23.6914 11.0041 24.1133 10.594 24.1133 10.0666C24.1133 9.53931 23.6914 9.11743 23.1641 9.11743ZM16.5078 5.719C18.0547 5.719 19.3203 4.45337 19.3203 2.9065C19.3203 1.35962 18.0547 0.0822754 16.5078 0.0822754C14.9609 0.0822754 13.6836 1.35962 13.6836 2.9065C13.6836 4.45337 14.9609 5.719 16.5078 5.719ZM16.5078 4.27759C15.7344 4.27759 15.1367 3.66822 15.1367 2.89478C15.1367 2.12134 15.7344 1.52368 16.5078 1.52368C17.2812 1.52368 17.8789 2.12134 17.8789 2.89478C17.8789 3.66822 17.2812 4.27759 16.5078 4.27759ZM14.7031 1.969H1.4375C0.910156 1.969 0.5 2.37915 0.5 2.9065C0.5 3.43384 0.910156 3.85572 1.4375 3.85572H14.7031V1.969ZM23.2109 1.969H18.3828V3.85572H23.2109C23.6914 3.85572 24.1133 3.43384 24.1133 2.9065C24.1133 2.37915 23.6914 1.969 23.2109 1.969Z" fill="#717171"/>
</svg>
